<svg width="32" height="32" viewBox="0 0 32 32" fill="none" xmlns="http://www.w3.org/2000/svg">
  <rect width="32" height="32" rx="6" fill="#20B2AA"/>
  <path d="M16 6C16 6 10 10 10 16C10 20.4183 12.5817 24 16 24C19.4183 24 22 20.4183 22 16C22 10 16 6 16 6Z" fill="white"/>
  <path d="M16 6C16 6 10 10 10 16C10 20.4183 12.5817 24 16 24C19.4183 24 22 20.4183 22 16C22 10 16 6 16 6Z" fill="url(#gradient)" opacity="0.8"/>
  <defs>
    <linearGradient id="gradient" x1="10" y1="10" x2="22" y2="22" gradientUnits="userSpaceOnUse">
      <stop stop-color="white"/>
      <stop offset="1" stop-color="#E0F7FA"/>
    </linearGradient>
  </defs>
</svg>